<svg id="Layer_1" data-name="Layer 1" xmlns="http://www.w3.org/2000/svg" viewBox="0 0 103.67 253.69"><defs><style>.cls-1,.cls-2{stroke:#231f20;stroke-miterlimit:10;}.cls-2{fill:none;}</style></defs><title>Artboard 3</title><path class="cls-1" d="M68.25,194.49c-.31-24.62-16.33-14.82-16.33-14.82v-26s.08-.13.24-.35c-1.61-2.55-14-20.82-33.15-14.4-20.54,6.88-35.28,57.36,31.34,112.7V207.91S68.57,219.51,68.25,194.49Z"/><path class="cls-1" d="M92.64,144.63c.67.73,1.3,1.5,1.9,2.28-.46-.78-1-1.55-1.47-2.33a22.07,22.07,0,0,0-12.33-7.36C84.63,138,88.66,140.26,92.64,144.63Z"/><path class="cls-1" d="M50.78,252a157.84,157.84,0,0,0,12.88-10.86q-6,5.4-13,10.71Z"/><path class="cls-2" d="M50.35,252l.26-.2-.26-.22Z"/><path class="cls-2" d="M80.74,137.22c-14.23-2.92-26.69,13.44-28.58,16.06l.19.3C63.68,138.53,73.55,135.91,80.74,137.22Z"/><path class="cls-2" d="M94.54,146.91c22.19,37.07-11.12,75.84-30.88,94.18C103.41,205.39,110.15,167.31,94.54,146.91Z"/><path class="cls-2" d="M94.54,146.91c-.6-.78-1.23-1.55-1.9-2.28-4-4.37-8-6.61-11.9-7.41-7.19-1.31-17.06,1.31-28.39,16.36l-.19-.3c-.16.22-.24.35-.24.35v26s16-9.8,16.33,14.82c.32,25-17.9,13.42-17.9,13.42v43.67l.26.22q7-5.3,13-10.71C83.42,222.75,116.73,184,94.54,146.91Z"/><path d="M86.08,117.65V1H83V120.27C84.05,119.38,85.08,118.51,86.08,117.65Z"/><path d="M20.66,119.08V1H17.58V116.86C18.59,117.6,19.62,118.34,20.66,119.08Z"/><path d="M93.19,1V111.39c4.25-3.84,7-6.46,7-6.46V1Z"/><path d="M10.47,1h-7V105.5c1.94,1.85,4.33,3.87,7,6Z"/><path d="M75.89,1H27.77V123.76H27.4c13.35,9.07,26.24,16.84,26.24,16.84,6.54-2.89,14.65-8.55,22.25-14.54Z"/></svg>