<?xml version="1.0" encoding="utf-8"?>
<!-- Generator: Adobe Illustrator 16.0.0, SVG Export Plug-In . SVG Version: 6.00 Build 0)  -->
<!DOCTYPE svg PUBLIC "-//W3C//DTD SVG 1.1//EN" "http://www.w3.org/Graphics/SVG/1.1/DTD/svg11.dtd">
<svg version="1.1" id="Layer_1" xmlns="http://www.w3.org/2000/svg" xmlns:xlink="http://www.w3.org/1999/xlink" x="0px" y="0px"
	 width="105.5px" height="114px" viewBox="0 0 105.5 114" enable-background="new 0 0 105.5 114" xml:space="preserve">
<g>
	<defs>
		<rect id="SVGID_1_" width="105.5" height="114"/>
	</defs>
	<clipPath id="SVGID_2_">
		<use xlink:href="#SVGID_1_"  overflow="visible"/>
	</clipPath>
	<path clip-path="url(#SVGID_2_)" fill="#FFFFFF" d="M23.25,66.625c0,0,5,2.625,17-7.125c0,0,3.583-0.667,0.66,6.006
		c-0.508,1.16-1.209,2.263-2.352,2.808C31.417,71.716,23.25,75.477,23.25,66.625"/>
	<path clip-path="url(#SVGID_2_)" fill="#FFFFFF" d="M54.25,47.625c0,0,1.5,7,0.625,10.625c0,0,5.454-4.642,6.858-10.011
		c0.132-0.503-0.024-1.047-0.402-1.403C60.51,46.063,58.563,45.302,54.25,47.625"/>
	<path clip-path="url(#SVGID_2_)" fill="#FFFFFF" d="M38.188,101.625L29.625,73.5c0,0,4.625-0.125,8.376-3L46.75,99
		C46.75,99,43.75,104.375,38.188,101.625"/>
	<path clip-path="url(#SVGID_2_)" fill="#FFFFFF" d="M76.876,34c0,0,6.75-6.5,23.375-8.375c0,0-15.25-7.75-35,0
		c0,0-0.734,8.328-2.75,15.375c0,0,1.625-25.5-0.125-28.875s-7.25-3.375-7.25-3.375c-20-0.375-41.375,22.125-41.375,22.125L23,62.5
		c0,0,1.375,7.375,14.875-4.75c13.5-12.125,23.805-15.625,25.277-10.875c0,0,2.849,1.625-6.276,10.625
		c-9.066,8.94,20.975-19.155,45.269-20.734C100.604,35.475,94.793,32.167,76.876,34 M44.833,44.453
		c-21.932-2.729-22.574-14.088-17.927-17.798c4.647-3.71,9.775-1.09,9.775-1.09c3.277-8.669,9.597-6.456,9.597-6.456
		C59.488,24.93,44.833,44.453,44.833,44.453"/>
	<path clip-path="url(#SVGID_2_)" fill="#FFFFFF" d="M102.144,36.766c0.352,0.294,0.481,0.484,0.481,0.484v-0.517
		C102.465,36.741,102.304,36.755,102.144,36.766"/>
	<path clip-path="url(#SVGID_2_)" fill="#FFFFFF" d="M12.875,27.375c0,0,5.375-6.375,12.5-10c0,0,3.375-7.125-7.375-5.625
		S5.759,29.658,12.875,27.375"/>
</g>
</svg>
