<svg id="Layer_1" data-name="Layer 1" xmlns="http://www.w3.org/2000/svg" viewBox="0 0 105.09 255"><defs><style>.cls-1,.cls-4{fill:#e52b51;}.cls-1,.cls-2,.cls-3{stroke:#e52b51;stroke-miterlimit:10;}.cls-3{fill:none;}</style></defs><title>Artboard 1</title><path class="cls-1" d="M68.92,195.8C68.6,171.18,52.58,181,52.58,181v-26l.25-.35c-1.61-2.55-14-20.83-33.16-14.4C-.87,147.07-15.61,197.55,51,252.89V209.22S69.23,220.81,68.92,195.8Z"/><path class="cls-2" d="M93.31,145.94c.66.73,1.3,1.49,1.9,2.28-.47-.78-.95-1.56-1.47-2.33a22.07,22.07,0,0,0-12.33-7.36C85.3,139.33,89.33,141.57,93.31,145.94Z"/><path class="cls-2" d="M51.45,253.26A158.93,158.93,0,0,0,64.32,242.4q-6,5.4-13,10.71Z"/><path class="cls-3" d="M51,253.31l.25-.2-.25-.22Z"/><path class="cls-3" d="M81.41,138.53C67.18,135.61,54.72,152,52.83,154.59l.19.29C64.35,139.84,74.22,137.22,81.41,138.53Z"/><path class="cls-3" d="M95.21,148.22c22.19,37.07-11.12,75.83-30.89,94.18C104.07,206.7,110.82,168.62,95.21,148.22Z"/><path class="cls-3" d="M95.21,148.22c-.6-.79-1.24-1.55-1.9-2.28-4-4.37-8-6.61-11.9-7.41-7.19-1.31-17.06,1.31-28.39,16.35l-.19-.29-.25.35v26s16-9.8,16.34,14.82c.31,25-17.9,13.42-17.9,13.42v43.67l.25.22q7-5.3,13-10.71C84.09,224.05,117.4,185.29,95.21,148.22Z"/><path class="cls-4" d="M86.75,119V2.31H83.66V121.58C84.72,120.69,85.75,119.82,86.75,119Z"/><path class="cls-4" d="M21.33,120.39V2.31H18.24V118.17Z"/><path class="cls-4" d="M93.86,2.31V112.69c4.25-3.84,7-6.45,7-6.45V2.31Z"/><path class="cls-4" d="M11.14,2.31h-7v104.5c1.93,1.85,4.32,3.87,7,6Z"/><path class="cls-4" d="M76.55,2.31H28.44V125.06h-.37c13.35,9.08,26.24,16.85,26.24,16.85C60.85,139,69,133.35,76.55,127.37Z"/></svg>