<svg id="Layer_1" data-name="Layer 1" xmlns="http://www.w3.org/2000/svg" viewBox="0 0 101.63 116.63"><defs><style>.cls-1{fill:#e52b51;}.cls-1,.cls-2,.cls-3{stroke:#e52b51;stroke-miterlimit:10;}.cls-3{fill:none;}</style></defs><title>red-heart</title><path class="cls-1" d="M70.17,60.1c-.31-24.62-16.33-14.82-16.33-14.82v-26s.08-.13.24-.35c-1.61-2.55-14-20.83-33.15-14.4C.39,11.37-14.35,61.85,52.27,117.19V73.52S70.49,85.11,70.17,60.1Z" transform="translate(-3.11 -1.98)"/><path class="cls-2" d="M94.56,10.24c.67.73,1.3,1.49,1.9,2.28C96,11.74,95.51,11,95,10.19A22.07,22.07,0,0,0,82.66,2.83C86.55,3.63,90.58,5.87,94.56,10.24Z" transform="translate(-3.11 -1.98)"/><path class="cls-2" d="M52.7,117.56A157.84,157.84,0,0,0,65.58,106.7q-6,5.4-13,10.71Z" transform="translate(-3.11 -1.98)"/><path class="cls-3" d="M52.27,117.61l.26-.2-.26-.22Z" transform="translate(-3.11 -1.98)"/><path class="cls-3" d="M82.66,2.83C68.43-.09,56,16.27,54.08,18.89l.19.29C65.6,4.14,75.47,1.52,82.66,2.83Z" transform="translate(-3.11 -1.98)"/><path class="cls-3" d="M96.46,12.52c22.19,37.07-11.12,75.84-30.88,94.18C105.33,71,112.07,32.92,96.46,12.52Z" transform="translate(-3.11 -1.98)"/><path class="cls-3" d="M96.46,12.52c-.6-.79-1.23-1.55-1.9-2.28-4-4.37-8-6.61-11.9-7.41C75.47,1.52,65.6,4.14,54.27,19.18l-.19-.29c-.16.22-.24.35-.24.35v26s16-9.8,16.33,14.82c.32,25-17.9,13.42-17.9,13.42v43.67l.26.22q7-5.3,13-10.71C85.34,88.36,118.65,49.59,96.46,12.52Z" transform="translate(-3.11 -1.98)"/></svg>