<svg id="Layer_1" data-name="Layer 1" xmlns="http://www.w3.org/2000/svg" viewBox="0 0 101.63 116.63"><defs><style>.cls-1{fill:#fff;}.cls-1,.cls-2,.cls-3{stroke:#fff;stroke-miterlimit:10;}.cls-3{fill:none;}</style></defs><title>white-heart</title><path class="cls-1" d="M69.77,60c-.31-24.62-16.34-14.82-16.34-14.82v-26l.25-.35C52.07,16.25,39.7-2,20.53,4.4,0,11.29-14.76,61.77,51.87,117.11V73.43S70.08,85,69.77,60Z" transform="translate(-2.7 -1.9)"/><path class="cls-2" d="M94.16,10.15c.67.74,1.3,1.5,1.9,2.29-.47-.78-1-1.56-1.47-2.34A22.07,22.07,0,0,0,82.26,2.74C86.15,3.54,90.18,5.79,94.16,10.15Z" transform="translate(-2.7 -1.9)"/><path class="cls-2" d="M52.3,117.47a156.37,156.37,0,0,0,12.87-10.86q-6,5.42-13,10.72Z" transform="translate(-2.7 -1.9)"/><path class="cls-3" d="M51.87,117.52l.26-.19-.26-.22Z" transform="translate(-2.7 -1.9)"/><path class="cls-3" d="M82.26,2.74C68-.17,55.57,16.19,53.68,18.8l.19.3C65.2,4.06,75.07,1.43,82.26,2.74Z" transform="translate(-2.7 -1.9)"/><path class="cls-3" d="M96.06,12.44c22.19,37.07-11.12,75.83-30.89,94.17C104.92,70.92,111.67,32.84,96.06,12.44Z" transform="translate(-2.7 -1.9)"/><path class="cls-3" d="M96.06,12.44c-.6-.79-1.23-1.55-1.9-2.29-4-4.36-8-6.61-11.9-7.41C75.07,1.43,65.2,4.06,53.87,19.1l-.19-.3-.25.35v26s16-9.8,16.34,14.82c.31,25-17.9,13.42-17.9,13.42v43.68l.26.22q7-5.31,13-10.72C84.94,88.27,118.25,49.51,96.06,12.44Z" transform="translate(-2.7 -1.9)"/></svg>