<svg id="Layer_1" data-name="Layer 1" xmlns="http://www.w3.org/2000/svg" viewBox="0 0 104 253.69"><defs><style>.cls-1,.cls-2{fill:#fff;}.cls-2,.cls-3,.cls-4{stroke:#fff;stroke-miterlimit:10;}.cls-4{fill:none;}</style></defs><title>Artboard 4</title><path class="cls-1" d="M85.9,116.65V0H82.81V119.27C83.87,118.38,84.9,117.51,85.9,116.65Z"/><path class="cls-1" d="M20.48,118.08V0H17.39V115.86Q18.9,117,20.48,118.08Z"/><path class="cls-1" d="M93,0V110.39c4.25-3.84,7-6.46,7-6.46V0Z"/><path class="cls-1" d="M10.28,0h-7V104.5c1.94,1.85,4.33,3.87,7,6Z"/><path class="cls-1" d="M75.7,0H27.58V122.76h-.36c13.34,9.07,26.23,16.84,26.23,16.84,6.54-2.89,14.65-8.55,22.25-14.54Z"/><path class="cls-2" d="M68.06,193.49c-.31-24.62-16.33-14.82-16.33-14.82v-26s.08-.13.25-.35c-1.62-2.55-14-20.82-33.16-14.4-20.54,6.88-35.28,57.36,31.34,112.7V206.91S68.38,218.51,68.06,193.49Z"/><path class="cls-3" d="M92.45,143.63c.67.73,1.3,1.5,1.91,2.28-.47-.78-1-1.55-1.47-2.33a22.08,22.08,0,0,0-12.34-7.36C84.45,137,88.47,139.26,92.45,143.63Z"/><path class="cls-3" d="M50.59,251a157.84,157.84,0,0,0,12.88-10.86q-6,5.4-13,10.71Z"/><path class="cls-4" d="M50.16,251l.26-.2-.26-.22Z"/><path class="cls-4" d="M80.55,136.22C66.32,133.3,53.86,149.66,52,152.28l.18.3C63.49,137.53,73.36,134.91,80.55,136.22Z"/><path class="cls-4" d="M94.36,145.91c22.18,37.07-11.13,75.84-30.89,94.18C103.22,204.39,110,166.31,94.36,145.91Z"/><path class="cls-4" d="M94.36,145.91c-.61-.78-1.24-1.55-1.91-2.28-4-4.37-8-6.61-11.9-7.41-7.19-1.31-17.06,1.31-28.39,16.36l-.18-.3c-.17.22-.25.35-.25.35v26s16-9.8,16.33,14.82c.32,25-17.9,13.42-17.9,13.42v43.67l.26.22q7-5.3,13-10.71C83.23,221.75,116.54,183,94.36,145.91Z"/></svg>